/* XPM */
static char *result[] = {
/* columns rows colors chars-per-pixel */
"32 32 78 1 ",
"  c black",
". c #342419",
"X c #372519",
"o c #3B291D",
"O c #3C2A1D",
"+ c #3C2A1E",
"@ c #3D2A1E",
"# c #3D2B1F",
"$ c #3E2A1E",
"% c #3E2B1E",
"& c #3F2B1E",
"* c #3F2B1F",
"= c #402B1D",
"- c #402B1E",
"; c #4E2E1D",
": c #5B2D16",
"> c #5C2D16",
", c #5D2D16",
"< c #5D2E16",
"1 c #5E2E16",
"2 c #5E2E17",
"3 c #5F2E17",
"4 c #502F1D",
"5 c #602E17",
"6 c #602F17",
"7 c #602F18",
"8 c #6A351C",
"9 c #6B351D",
"0 c #6E371D",
"q c #6D371E",
"w c #6E371E",
"e c #6E381E",
"r c #623320",
"t c #643720",
"y c #653A24",
"u c #673D26",
"i c #6D3C23",
"p c #6E3C23",
"a c #6F3C23",
"s c #6E3B24",
"d c #6E3C24",
"f c #713D25",
"g c #723D24",
"h c #723D25",
"j c #744026",
"k c #744126",
"l c #754127",
"z c #7E4124",
"x c #7E482D",
"c c #874526",
"v c #874527",
"b c #964D2C",
"n c #974E2C",
"m c #9B502E",
"M c #9D522E",
"N c #9D522F",
"B c #9E522F",
"V c #9F532F",
"C c #9F5330",
"Z c #A35631",
"A c #A45631",
"S c #A55631",
"D c #A55731",
"F c #A55632",
"G c #A55732",
"H c #A75832",
"J c #A85833",
"K c #A85933",
"L c #AA5933",
"P c #A95934",
"I c #AA5A34",
"U c #AD5C35",
"Y c #AE5C35",
"T c #AF5D35",
"R c #B05D36",
"E c #B25F37",
"W c #B56138",
"Q c #B86239",
/* pixels */
"................................",
"................................",
"................................",
"...IUUUUUUUUUUUlxUUUUUUUUUUUF...",
"...FJJJJJJJJJJJilJJJJJJJJJJJB...",
"...FJJJJJJJJJJJilJJJJJJJJJJJB...",
"...FJJJJJJJJJJJslJJJJJJJJJJJB...",
"...FJJJJJJJJJJJdlJJJJJJJJJJJB...",
"...FJJJJJJJJJJJilJJJJJJJJJJJB...",
"...FJJJJJJJJJJJilJJJJJJJJJJJB...",
"...>:>>>>>>>>>>4;>>>>>>>5577>...",
"...@@@@@@@@@@@@@@@@@@@@@@@@@....",
"...EEEEEm@UEEEEEEEEEEH@FEEEEJ...",
"...FJJJJb@ZJJJJJJJJJJB-BJJJJB...",
"...FJJJJb@ZJJJJJJJJJJB-BJJJJB...",
"...FJJJJb@ZJJJJJJJJJJB-BJJJJB...",
"...FJJJJb@ZJJJJJJJJJJB-BJJJJB...",
"...FJJJJb@ZJJJJJJJJJJB-BJJJJB...",
"...FJJJJb@ZJJJJJJJJJJB-BJJJJB...",
"...000000@000000000009@e00009...",
"...o@@@@@@@@@@@@@@@@@@@@@@@@....",
"...WQQQQQQQQQQQyuQQQQQQQQQQQU...",
"...FJJJJJJJJJJJhlJJJJJJJJJJJB...",
"...FJJJJJJJJJJJhlJJJJJJJJJJJB...",
"...FJJJJIJJJJJJhlJJJJJJJJJJJC...",
"...FJJJJJJJJJJJhlJJJJJJJJJJJB...",
"...FJJJJJJJJJJJhlJJJJJJJJJJJB...",
"...FJJJJJJJJJJJhlJJJJJJJJJJJB...",
"...ccccccccccccrtcccccccccccz...",
"................................",
"................................",
"................................"
};
