/* XPM */
static char * player_nw_xpm[] = {
"32 32 222 2",
"  	c #05263B",
". 	c #DF3326",
"+ 	c #D52B1D",
"@ 	c #A5251A",
"# 	c #117ABE",
"$ 	c #0A4164",
"% 	c #F83624",
"& 	c #620E0C",
"* 	c #EE3122",
"= 	c #BE2418",
"- 	c #77110B",
"; 	c #0B7CBC",
"> 	c #1492DC",
", 	c #055888",
"' 	c #0975B9",
") 	c #0E78BC",
"! 	c #DE2C1F",
"~ 	c #9D1812",
"{ 	c #1381C2",
"] 	c #CC2E21",
"^ 	c #8E170F",
"/ 	c #BC1E18",
"( 	c #800F0C",
"_ 	c #ACA07B",
": 	c #0F7ABE",
"< 	c #990E10",
"[ 	c #92110E",
"} 	c #D1C39F",
"| 	c #BFAD74",
"1 	c #AA9D7B",
"2 	c #107ABE",
"3 	c #0A76BA",
"4 	c #0F78BC",
"5 	c #B5AA84",
"6 	c #7B4E51",
"7 	c #8B5554",
"8 	c #690407",
"9 	c #6F1414",
"0 	c #DECF9C",
"a 	c #322B1B",
"b 	c #A3875B",
"c 	c #745F3F",
"d 	c #118BD4",
"e 	c #0D77BA",
"f 	c #72674A",
"g 	c #C3AF75",
"h 	c #96885C",
"i 	c #F1EDD7",
"j 	c #E7E5D6",
"k 	c #EDE9D4",
"l 	c #7B766A",
"m 	c #8B341C",
"n 	c #D9B16E",
"o 	c #CBB97B",
"p 	c #1D1A14",
"q 	c #4E4A43",
"r 	c #423F3B",
"s 	c #393532",
"t 	c #2B2A26",
"u 	c #645C4B",
"v 	c #6D5C3C",
"w 	c #0E78BB",
"x 	c #0570B2",
"y 	c #FAF7E2",
"z 	c #D2CDBA",
"A 	c #F6F2DC",
"B 	c #FEFDEB",
"C 	c #555147",
"D 	c #BEB9A7",
"E 	c #B45D16",
"F 	c #BD9455",
"G 	c #856F44",
"H 	c #B6B1A2",
"I 	c #413D36",
"J 	c #69262D",
"K 	c #524C46",
"L 	c #9F998D",
"M 	c #A49D93",
"N 	c #77716A",
"O 	c #6D5944",
"P 	c #3B3223",
"Q 	c #FCFAE5",
"R 	c #F3EFDB",
"S 	c #9B7964",
"T 	c #280305",
"U 	c #DDD8C3",
"V 	c #855D39",
"W 	c #673615",
"X 	c #CAC5B3",
"Y 	c #4C473B",
"Z 	c #DAD5C2",
"` 	c #CBC6B4",
" .	c #C7C2AF",
"..	c #BFB9AA",
"+.	c #A29C8D",
"@.	c #352A28",
"#.	c #E6E1CD",
"$.	c #625D53",
"%.	c #190606",
"&.	c #ADA896",
"*.	c #5E2F32",
"=.	c #8A8579",
"-.	c #8D8880",
";.	c #9C9689",
">.	c #ACA699",
",.	c #8D897B",
"'.	c #14130F",
").	c #ECEDDB",
"!.	c #B5B09E",
"~.	c #090A07",
"{.	c #AFAA9A",
"].	c #341516",
"^.	c #46413B",
"/.	c #565249",
"(.	c #D8DBDE",
"_.	c #924F55",
":.	c #612E33",
"<.	c #584643",
"[.	c #AAA494",
"}.	c #4D3835",
"|.	c #51463A",
"1.	c #957C52",
"2.	c #8E7E53",
"3.	c #67563B",
"4.	c #D2CDB7",
"5.	c #797367",
"6.	c #95666A",
"7.	c #534F4C",
"8.	c #624643",
"9.	c #8A343D",
"0.	c #7B3239",
"a.	c #EAE6D1",
"b.	c #E9E5CF",
"c.	c #53452B",
"d.	c #1179BD",
"e.	c #E2DDC9",
"f.	c #D5D0BD",
"g.	c #C2BDAA",
"h.	c #6C685D",
"i.	c #8C484B",
"j.	c #A2484E",
"k.	c #4E3433",
"l.	c #AC8789",
"m.	c #B38E81",
"n.	c #D6CAB5",
"o.	c #2C261E",
"p.	c #BAB5A2",
"q.	c #999383",
"r.	c #979182",
"s.	c #666458",
"t.	c #7E7A6D",
"u.	c #817C6F",
"v.	c #442428",
"w.	c #271614",
"x.	c #BCAEAF",
"y.	c #AB5F66",
"z.	c #BEB9BE",
"A.	c #9F6D75",
"B.	c #806164",
"C.	c #857B64",
"D.	c #848174",
"E.	c #6F6B61",
"F.	c #171614",
"G.	c #837E72",
"H.	c #888476",
"I.	c #5E594E",
"J.	c #22211C",
"K.	c #6A665A",
"L.	c #BCAF9F",
"M.	c #CAB4A6",
"N.	c #824849",
"O.	c #AD7F79",
"P.	c #959395",
"Q.	c #410D18",
"R.	c #5E5A51",
"S.	c #3B0D15",
"T.	c #5F5847",
"U.	c #5A554C",
"V.	c #928D84",
"W.	c #B18A90",
"X.	c #D0C9AE",
"Y.	c #3F3C36",
"Z.	c #272520",
"`.	c #0A0A09",
" +	c #747165",
".+	c #737271",
"++	c #47362B",
"@+	c #B2AD9B",
"#+	c #908C7E",
"$+	c #411318",
"%+	c #515151",
"&+	c #843C42",
"*+	c #973F45",
"=+	c #8F8264",
"-+	c #CDC3A5",
";+	c #E0DBC7",
">+	c #0B7CC1",
",+	c #656156",
"'+	c #764A4D",
")+	c #433D2C",
"!+	c #DDD6BE",
"~+	c #2A2722",
"{+	c #0471B4",
"]+	c #4E4A3E",
"^+	c #5F1F26",
"/+	c #5D5543",
"(+	c #625A45",
"_+	c #6B624C",
":+	c #686252",
"<+	c #451F22",
"[+	c #5A523F",
"}+	c #544D3B",
"|+	c #3A352A",
"1+	c #958C74",
"2+	c #716851",
"3+	c #95907E",
"4+	c #716D62",
"5+	c #9D9986",
"6+	c #FEFDF1",
"7+	c #C0BCA4",
"8+	c #0A7ABF",
"9+	c #D7D2C0",
"                          . + @                                 ",
"      # $ $ $   $ $ $ % & * = - ; ; ; ; ; >   , , , , $ $ $ '   ",
"    ) $ $ $ $   $ $ $ * - ! ~ { ; ; ; ; ; >   , , , $ $ $ $ '   ",
"  # $ $ $ $ $   $ $ ] ! ^ / - @ ( ; ; _ ; >   : $ $ $ $ $ $ '   ",
"  $ $ $ $ $ $   $ $ $ = ^ ~ < [ } ; ; | ; >   $ $ $ 1 $ $ 2 3   ",
"  4 4 4 4 4 4   5 4 4 6 7 & 8 9 0 > a b c d   e f g h 4 4 4 4   ",
"              i 0     j k l m n o   p q r s t u b b v           ",
"  $ $ $ w x e y z A B A C D E F G H I J K 7 L M N O P     $ $   ",
"  $ $ $ $   4 Q A B R S T U V W X X Y z U Z `  ...+.@.    $ $   ",
"  $ $ $ $ A #.X U  .$.T %.k &.$.*.K $...H +.=.-.;.>.,.'.  $ $   ",
"  ' ' ' $ B ).y k !.K ~.{.i A X @.].^./.(._.J :.<.L [.}.|.1.2.3.",
"        k Q Q A #.z X i y Q Q 4.5.6.7.8.9.0.4.a.b.!.{.,.t v c.  ",
"  >   d.Z a.a.e.f. .g. .X a.z [.h.T ].i.j.k.l.m.n.4.+.M s o.$   ",
"  >   $ {. .X p.[.[.;.q.r.s.t.u.<.v.w.x.y.z.A.9.6.B.C.D.E.F.,   ",
"  >   $ $ G.,.D.$ H.t I.q J.K.k.M f.q.L.M.N.O.i.l.P.Q.G.=.%.,   ",
"  >   $ $ $ $ $ k q J.~.~.R.$.S.` T.t.a.D l y #.5.J S.U.V.J.v v ",
"    a.      W.N.X.Y.Z.`.s  +.+k.++p ,.Z D. .U @+#+@.$+%+V.Y.c.c.",
"  H G.X [.&+*+W.V.q t @+[.+.++p F.=+-+ +r.;+p.$.G.^.S.q  +K >+  ",
"  z ,+H.r.e.@+0.'+ .X g.&.T.P )+1 !+z D.h.f.,.,+h.~+F.^.R.K {+  ",
"#.$ I.]+=.!.G.u.^+N D.D.$ , /+(+_+g.:+J.C.,.(+T.~+C I r U.K $   ",
"  D.  R.u.G.+.k <+  > $ $ , [+}+)+|+_+1+_+(+}+o./.K K /./.q $   ",
"  ; ;   , /.D.U $   > $ $ I.]+/+_+2+_+(+/+P )+3+K.s.4+4+K.I 4   ",
"  ; ;   $ $ a.5.$   > $ $ ,+/.$.u [+}+}+)+_+[+q.K.,+q R.,+]+  R.",
"  ; ;   , $ $ $ $   > $ X C K.U.h.$ /+T./+|.}+}+t.4+t.5.G.$.R.K.",
"  ; ;   , $ $ $ $   > $ z q.$.K.  $ $ $ $ , , $ $ H.t. +5./.Y.K.",
"  ; ;   $ $ $ $ $   > $ $ &.G.C   $ $ $ $ $ $ $ $ $ r.,.p.;.I.,+",
"  ; ;   $ $ $ $ $   > $ $ A ` U.s.$ $ $ $ $ $ $ $ $ 4.H k z     ",
"  ; ;   $ $ $ $ $     b.a.A p.5+f.u.                Z q.@+g.    ",
"    ;   , $ $ $ $   y Q k B e.,.#.=.$ $ $ , , , ,   R B 6+B i 7+",
"  8+;   , , $ $ ,   R #.H {.,.s.#+$ $ $ $ $ $ , , p.A k #.B 7+6+",
"  , 8+  , , , $ $   4 $ $ $ $ $ $ $ $ $ $ $ $ , ,   j Z p.6+q.a.",
"                                                    Z !.  9+    "};
